<svg width="20" height="20" viewBox="0 0 20 20" fill="none" xmlns="http://www.w3.org/2000/svg">
<path d="M13.4166 11.0835L12.2083 9.87516C12.3333 9.22239 12.1458 8.61127 11.6458 8.04183C11.1458 7.47238 10.5 7.25016 9.70831 7.37516L8.49998 6.16683C8.73609 6.05572 8.97567 5.97239 9.21873 5.91683C9.46179 5.86127 9.7222 5.8335 9.99998 5.8335C11.0416 5.8335 11.9271 6.19808 12.6562 6.92725C13.3854 7.65641 13.75 8.54183 13.75 9.5835C13.75 9.86127 13.7222 10.1217 13.6666 10.3647C13.6111 10.6078 13.5278 10.8474 13.4166 11.0835ZM16.0833 13.7085L14.875 12.5418C15.4028 12.1391 15.8715 11.6981 16.2812 11.2189C16.691 10.7397 17.0416 10.1946 17.3333 9.5835C16.6389 8.18072 15.6423 7.06613 14.3437 6.23975C13.0451 5.41336 11.5972 5.00016 9.99998 5.00016C9.5972 5.00016 9.20137 5.02794 8.81248 5.0835C8.42359 5.13905 8.04165 5.22239 7.66665 5.3335L6.37498 4.04183C6.94442 3.80572 7.52776 3.62864 8.12498 3.51058C8.7222 3.39252 9.3472 3.3335 9.99998 3.3335C12.0972 3.3335 13.9653 3.91336 15.6041 5.07308C17.243 6.2328 18.4305 7.73627 19.1666 9.5835C18.8472 10.4029 18.4271 11.1634 17.9062 11.8647C17.3854 12.5661 16.7778 13.1807 16.0833 13.7085ZM16.5 18.8335L13 15.3752C12.5139 15.5279 12.0243 15.6425 11.5312 15.7189C11.0382 15.7953 10.5278 15.8335 9.99998 15.8335C7.90276 15.8335 6.0347 15.2536 4.39581 14.0939C2.75692 12.9342 1.56942 11.4307 0.833313 9.5835C1.12498 8.84739 1.49304 8.16336 1.93748 7.53141C2.38192 6.89947 2.88887 6.3335 3.45831 5.8335L1.16665 3.50016L2.33331 2.3335L17.6666 17.6668L16.5 18.8335ZM4.62498 7.00016C4.2222 7.36127 3.85415 7.75711 3.52081 8.18766C3.18748 8.61822 2.90276 9.0835 2.66665 9.5835C3.36109 10.9863 4.35762 12.1009 5.65623 12.9272C6.95484 13.7536 8.40276 14.1668 9.99998 14.1668C10.2778 14.1668 10.5486 14.1495 10.8125 14.1147C11.0764 14.08 11.3472 14.0418 11.625 14.0002L10.875 13.2085C10.7222 13.2502 10.5764 13.2814 10.4375 13.3022C10.2986 13.3231 10.1528 13.3335 9.99998 13.3335C8.95831 13.3335 8.0729 12.9689 7.34373 12.2397C6.61456 11.5106 6.24998 10.6252 6.24998 9.5835C6.24998 9.43072 6.2604 9.28489 6.28123 9.146C6.30206 9.00711 6.33331 8.86127 6.37498 8.7085L4.62498 7.00016Z" fill="white"/>
</svg>
