<svg width="24" height="24" viewBox="0 0 24 24" fill="none" xmlns="http://www.w3.org/2000/svg">
<g clip-path="url(#clip0_42_12483)">
<path d="M20.5899 10.0001H12.6499C11.6999 7.31012 8.88994 5.50012 5.76994 6.12012C3.47994 6.58012 1.61994 8.42012 1.13994 10.7001C0.31994 14.5801 3.25994 18.0001 6.99994 18.0001C9.60994 18.0001 11.8299 16.3301 12.6499 14.0001H12.9999L14.2899 15.2901C14.6799 15.6801 15.3099 15.6801 15.6999 15.2901L16.9999 14.0001L18.2899 15.2901C18.6799 15.6801 19.3199 15.6801 19.7099 15.2901L22.2999 12.6801C22.6899 12.2901 22.6899 11.6501 22.2899 11.2601L21.2999 10.2901C21.0999 10.1001 20.8499 10.0001 20.5899 10.0001ZM6.99994 15.0001C5.34994 15.0001 3.99994 13.6501 3.99994 12.0001C3.99994 10.3501 5.34994 9.00012 6.99994 9.00012C8.64994 9.00012 9.99994 10.3501 9.99994 12.0001C9.99994 13.6501 8.64994 15.0001 6.99994 15.0001Z" fill="#2F4F4F"/>
</g>
<defs>
<clipPath id="clip0_42_12483">
<rect width="24" height="24" fill="white"/>
</clipPath>
</defs>
</svg>
