<svg width="50" height="51" viewBox="0 0 50 51" fill="none" xmlns="http://www.w3.org/2000/svg">
<rect y="0.5" width="50" height="50" rx="4" fill="#FFEBCC"/>
<mask id="mask0_96_1478" style="mask-type:alpha" maskUnits="userSpaceOnUse" x="13" y="12" width="24" height="25">
<rect x="13" y="12.5" width="24" height="24" fill="#D9D9D9"/>
</mask>
<g mask="url(#mask0_96_1478)">
<path d="M19 26.5H27V24.5H19V26.5ZM19 23.5H31V21.5H19V23.5ZM19 20.5H31V20.4C30.3833 20.2667 29.8208 20.0375 29.3125 19.7125C28.8042 19.3875 28.3667 18.9833 28 18.5H19V20.5ZM15 34.5V16.5C15 15.95 15.1958 15.4792 15.5875 15.0875C15.9792 14.6958 16.45 14.5 17 14.5H27.1C27.0333 14.8333 27 15.1667 27 15.5C27 15.8333 27.0333 16.1667 27.1 16.5H17V29.625L18.15 28.5H33V20.4C33.3833 20.3167 33.7417 20.2042 34.075 20.0625C34.4083 19.9208 34.7167 19.7333 35 19.5V28.5C35 29.05 34.8042 29.5208 34.4125 29.9125C34.0208 30.3042 33.55 30.5 33 30.5H19L15 34.5ZM32 18.5C31.1667 18.5 30.4583 18.2083 29.875 17.625C29.2917 17.0417 29 16.3333 29 15.5C29 14.6667 29.2917 13.9583 29.875 13.375C30.4583 12.7917 31.1667 12.5 32 12.5C32.8333 12.5 33.5417 12.7917 34.125 13.375C34.7083 13.9583 35 14.6667 35 15.5C35 16.3333 34.7083 17.0417 34.125 17.625C33.5417 18.2083 32.8333 18.5 32 18.5Z" fill="#2F4F4F"/>
</g>
</svg>
