<svg width="50" height="51" viewBox="0 0 50 51" fill="none" xmlns="http://www.w3.org/2000/svg">
<rect y="0.5" width="50" height="50" rx="4" fill="#FFEBCC"/>
<mask id="mask0_96_1471" style="mask-type:alpha" maskUnits="userSpaceOnUse" x="13" y="12" width="24" height="25">
<rect x="13" y="12.5" width="24" height="24" fill="#D9D9D9"/>
</mask>
<g mask="url(#mask0_96_1471)">
<path d="M25 33.5C22.9 33.5 21.0417 32.8625 19.425 31.5875C17.8083 30.3125 16.7583 28.6833 16.275 26.7C16.2083 26.45 16.2583 26.2208 16.425 26.0125C16.5917 25.8042 16.8167 25.6833 17.1 25.65C17.3667 25.6167 17.6083 25.6667 17.825 25.8C18.0417 25.9333 18.1917 26.1333 18.275 26.4C18.675 27.9 19.5 29.125 20.75 30.075C22 31.025 23.4167 31.5 25 31.5C26.95 31.5 28.6042 30.8208 29.9625 29.4625C31.3208 28.1042 32 26.45 32 24.5C32 22.55 31.3208 20.8958 29.9625 19.5375C28.6042 18.1792 26.95 17.5 25 17.5C23.85 17.5 22.775 17.7667 21.775 18.3C20.775 18.8333 19.9333 19.5667 19.25 20.5H21C21.2833 20.5 21.5208 20.5958 21.7125 20.7875C21.9042 20.9792 22 21.2167 22 21.5C22 21.7833 21.9042 22.0208 21.7125 22.2125C21.5208 22.4042 21.2833 22.5 21 22.5H17C16.7167 22.5 16.4792 22.4042 16.2875 22.2125C16.0958 22.0208 16 21.7833 16 21.5V17.5C16 17.2167 16.0958 16.9792 16.2875 16.7875C16.4792 16.5958 16.7167 16.5 17 16.5C17.2833 16.5 17.5208 16.5958 17.7125 16.7875C17.9042 16.9792 18 17.2167 18 17.5V18.85C18.85 17.7833 19.8875 16.9583 21.1125 16.375C22.3375 15.7917 23.6333 15.5 25 15.5C26.25 15.5 27.4208 15.7375 28.5125 16.2125C29.6042 16.6875 30.5542 17.3292 31.3625 18.1375C32.1708 18.9458 32.8125 19.8958 33.2875 20.9875C33.7625 22.0792 34 23.25 34 24.5C34 25.75 33.7625 26.9208 33.2875 28.0125C32.8125 29.1042 32.1708 30.0542 31.3625 30.8625C30.5542 31.6708 29.6042 32.3125 28.5125 32.7875C27.4208 33.2625 26.25 33.5 25 33.5ZM26 24.1L28.5 26.6C28.6833 26.7833 28.775 27.0167 28.775 27.3C28.775 27.5833 28.6833 27.8167 28.5 28C28.3167 28.1833 28.0833 28.275 27.8 28.275C27.5167 28.275 27.2833 28.1833 27.1 28L24.3 25.2C24.2 25.1 24.125 24.9875 24.075 24.8625C24.025 24.7375 24 24.6083 24 24.475V20.5C24 20.2167 24.0958 19.9792 24.2875 19.7875C24.4792 19.5958 24.7167 19.5 25 19.5C25.2833 19.5 25.5208 19.5958 25.7125 19.7875C25.9042 19.9792 26 20.2167 26 20.5V24.1Z" fill="#2F4F4F"/>
</g>
</svg>
