<svg width="24" height="24" viewBox="0 0 24 24" fill="none" xmlns="http://www.w3.org/2000/svg">
<path d="M10.2084 3.1002C10.2084 2.87928 10.5069 2.7002 10.875 2.7002H13.5417C13.9099 2.7002 14.2084 2.87928 14.2084 3.1002V3.5002C14.2084 3.72111 13.9099 3.9002 13.5417 3.9002H10.875C10.5069 3.9002 10.2084 3.72111 10.2084 3.5002V3.1002Z" fill="#2F4F4F"/>
<path d="M16.75 1.2002H7.75C6.7835 1.2002 6 1.9837 6 2.9502V19.9502C6 20.9167 6.7835 21.7002 7.75 21.7002H16.75C17.7165 21.7002 18.5 20.9167 18.5 19.9502V2.9502C18.5 1.9837 17.7165 1.2002 16.75 1.2002Z" stroke="#2F4F4F"/>
<path d="M9.20837 19.7002H15.2084" stroke="#2F4F4F" stroke-linecap="round"/>
</svg>
