<svg width="50" height="51" viewBox="0 0 50 51" fill="none" xmlns="http://www.w3.org/2000/svg">
<rect y="0.5" width="50" height="50" rx="4" fill="#FFEBCC"/>
<mask id="mask0_96_1485" style="mask-type:alpha" maskUnits="userSpaceOnUse" x="13" y="12" width="24" height="25">
<rect x="13" y="12.5" width="24" height="24" fill="#D9D9D9"/>
</mask>
<g mask="url(#mask0_96_1485)">
<path d="M16 19.5C15.7167 19.5 15.4792 19.4042 15.2875 19.2125C15.0958 19.0208 15 18.7833 15 18.5V15.5C15 15.2167 15.0958 14.9792 15.2875 14.7875C15.4792 14.5958 15.7167 14.5 16 14.5H19C19.2833 14.5 19.5208 14.5958 19.7125 14.7875C19.9042 14.9792 20 15.2167 20 15.5C20 15.7833 19.9042 16.0208 19.7125 16.2125C19.5208 16.4042 19.2833 16.5 19 16.5H17V18.5C17 18.7833 16.9042 19.0208 16.7125 19.2125C16.5208 19.4042 16.2833 19.5 16 19.5ZM16 34.5C15.7167 34.5 15.4792 34.4042 15.2875 34.2125C15.0958 34.0208 15 33.7833 15 33.5V30.5C15 30.2167 15.0958 29.9792 15.2875 29.7875C15.4792 29.5958 15.7167 29.5 16 29.5C16.2833 29.5 16.5208 29.5958 16.7125 29.7875C16.9042 29.9792 17 30.2167 17 30.5V32.5H19C19.2833 32.5 19.5208 32.5958 19.7125 32.7875C19.9042 32.9792 20 33.2167 20 33.5C20 33.7833 19.9042 34.0208 19.7125 34.2125C19.5208 34.4042 19.2833 34.5 19 34.5H16ZM31 34.5C30.7167 34.5 30.4792 34.4042 30.2875 34.2125C30.0958 34.0208 30 33.7833 30 33.5C30 33.2167 30.0958 32.9792 30.2875 32.7875C30.4792 32.5958 30.7167 32.5 31 32.5H33V30.5C33 30.2167 33.0958 29.9792 33.2875 29.7875C33.4792 29.5958 33.7167 29.5 34 29.5C34.2833 29.5 34.5208 29.5958 34.7125 29.7875C34.9042 29.9792 35 30.2167 35 30.5V33.5C35 33.7833 34.9042 34.0208 34.7125 34.2125C34.5208 34.4042 34.2833 34.5 34 34.5H31ZM34 19.5C33.7167 19.5 33.4792 19.4042 33.2875 19.2125C33.0958 19.0208 33 18.7833 33 18.5V16.5H31C30.7167 16.5 30.4792 16.4042 30.2875 16.2125C30.0958 16.0208 30 15.7833 30 15.5C30 15.2167 30.0958 14.9792 30.2875 14.7875C30.4792 14.5958 30.7167 14.5 31 14.5H34C34.2833 14.5 34.5208 14.5958 34.7125 14.7875C34.9042 14.9792 35 15.2167 35 15.5V18.5C35 18.7833 34.9042 19.0208 34.7125 19.2125C34.5208 19.4042 34.2833 19.5 34 19.5ZM30.5 31.5V30H32V31.5H30.5ZM30.5 28.5V27H32V28.5H30.5ZM29 30V28.5H30.5V30H29ZM27.5 31.5V30H29V31.5H27.5ZM26 30V28.5H27.5V30H26ZM29 27V25.5H30.5V27H29ZM27.5 28.5V27H29V28.5H27.5ZM26 27V25.5H27.5V27H26ZM27 23.5C26.7167 23.5 26.4792 23.4042 26.2875 23.2125C26.0958 23.0208 26 22.7833 26 22.5V18.5C26 18.2167 26.0958 17.9792 26.2875 17.7875C26.4792 17.5958 26.7167 17.5 27 17.5H31C31.2833 17.5 31.5208 17.5958 31.7125 17.7875C31.9042 17.9792 32 18.2167 32 18.5V22.5C32 22.7833 31.9042 23.0208 31.7125 23.2125C31.5208 23.4042 31.2833 23.5 31 23.5H27ZM19 31.5C18.7167 31.5 18.4792 31.4042 18.2875 31.2125C18.0958 31.0208 18 30.7833 18 30.5V26.5C18 26.2167 18.0958 25.9792 18.2875 25.7875C18.4792 25.5958 18.7167 25.5 19 25.5H23C23.2833 25.5 23.5208 25.5958 23.7125 25.7875C23.9042 25.9792 24 26.2167 24 26.5V30.5C24 30.7833 23.9042 31.0208 23.7125 31.2125C23.5208 31.4042 23.2833 31.5 23 31.5H19ZM19 23.5C18.7167 23.5 18.4792 23.4042 18.2875 23.2125C18.0958 23.0208 18 22.7833 18 22.5V18.5C18 18.2167 18.0958 17.9792 18.2875 17.7875C18.4792 17.5958 18.7167 17.5 19 17.5H23C23.2833 17.5 23.5208 17.5958 23.7125 17.7875C23.9042 17.9792 24 18.2167 24 18.5V22.5C24 22.7833 23.9042 23.0208 23.7125 23.2125C23.5208 23.4042 23.2833 23.5 23 23.5H19ZM19.5 30H22.5V27H19.5V30ZM19.5 22H22.5V19H19.5V22ZM27.5 22H30.5V19H27.5V22Z" fill="#2F4F4F"/>
</g>
</svg>
