<svg width="50" height="51" viewBox="0 0 50 51" fill="none" xmlns="http://www.w3.org/2000/svg">
<rect y="0.5" width="50" height="50" rx="4" fill="#FFEBCC"/>
<mask id="mask0_96_1492" style="mask-type:alpha" maskUnits="userSpaceOnUse" x="13" y="12" width="24" height="25">
<rect x="13" y="12.5" width="24" height="24" fill="#D9D9D9"/>
</mask>
<g mask="url(#mask0_96_1492)">
<path d="M18.825 29.5001L20.725 31.4001C20.925 31.6001 21.0209 31.8334 21.0125 32.1001C21.0042 32.3668 20.9 32.6001 20.7 32.8001C20.5 32.9834 20.2667 33.0793 20 33.0876C19.7334 33.0959 19.5 33.0001 19.3 32.8001L15.7 29.2001C15.6 29.1001 15.5292 28.9918 15.4875 28.8751C15.4459 28.7584 15.425 28.6334 15.425 28.5001C15.425 28.3668 15.4459 28.2418 15.4875 28.1251C15.5292 28.0084 15.6 27.9001 15.7 27.8001L19.3 24.2001C19.4834 24.0168 19.7125 23.9251 19.9875 23.9251C20.2625 23.9251 20.5 24.0168 20.7 24.2001C20.9 24.4001 21 24.6376 21 24.9126C21 25.1876 20.9 25.4251 20.7 25.6251L18.825 27.5001H33C33.2834 27.5001 33.5209 27.5959 33.7125 27.7876C33.9042 27.9793 34 28.2168 34 28.5001C34 28.7834 33.9042 29.0209 33.7125 29.2126C33.5209 29.4043 33.2834 29.5001 33 29.5001H18.825ZM31.175 21.5001H17C16.7167 21.5001 16.4792 21.4043 16.2875 21.2126C16.0959 21.0209 16 20.7834 16 20.5001C16 20.2168 16.0959 19.9793 16.2875 19.7876C16.4792 19.5959 16.7167 19.5001 17 19.5001H31.175L29.275 17.6001C29.075 17.4001 28.9792 17.1668 28.9875 16.9001C28.9959 16.6334 29.1 16.4001 29.3 16.2001C29.5 16.0168 29.7334 15.9209 30 15.9126C30.2667 15.9043 30.5 16.0001 30.7 16.2001L34.3 19.8001C34.4 19.9001 34.4709 20.0084 34.5125 20.1251C34.5542 20.2418 34.575 20.3668 34.575 20.5001C34.575 20.6334 34.5542 20.7584 34.5125 20.8751C34.4709 20.9918 34.4 21.1001 34.3 21.2001L30.7 24.8001C30.5167 24.9834 30.2875 25.0751 30.0125 25.0751C29.7375 25.0751 29.5 24.9834 29.3 24.8001C29.1 24.6001 29 24.3626 29 24.0876C29 23.8126 29.1 23.5751 29.3 23.3751L31.175 21.5001Z" fill="#2F4F4F"/>
</g>
</svg>
